<svg width="119" height="30" viewBox="0 0 119 30" fill="none" xmlns="http://www.w3.org/2000/svg">
<mask id="mask0_83_7" style="mask-type:luminance" maskUnits="userSpaceOnUse" x="0" y="0" width="30" height="29">
<path d="M29.4608 0H0V28.9773H29.4608V0Z" fill="white"/>
</mask>
<g mask="url(#mask0_83_7)">
<path d="M28.6683 7.4531C28.4539 7.81454 28.2445 8.05383 28.1647 8.14107C24.9018 11.6258 21.5367 15.0209 18.1492 18.3859C16.3594 20.1657 13.5402 20.2455 11.7205 18.4882C8.16352 15.0558 4.66381 11.561 1.23888 7.9965C-0.505984 6.18184 -0.351438 3.28535 1.34856 1.54797C3.12833 -0.269188 5.94005 -0.45863 7.88932 1.20896C9.0858 2.23096 10.1552 3.405 11.2893 4.50177L14.9261 8.14107L19.0565 3.69664C19.899 2.84167 20.7341 1.9792 21.634 1.19152C23.1595 -0.147047 24.9391 -0.333998 26.7514 0.511018C27.1327 0.687997 27.8007 1.00706 28.3741 1.67759C29.7625 3.30031 29.623 5.84532 28.6683 7.4531Z" fill="url(#paint0_linear_83_7)"/>
<path d="M0.0170394 12.7747C2.39755 15.1228 4.57365 17.2665 6.74974 19.4178C7.28069 19.9411 7.80415 20.4746 8.32012 21.0131C9.79579 22.5585 10.1497 24.5876 9.26235 26.4022C8.42731 28.1097 6.56528 29.1442 4.6584 28.9572C2.57452 28.7553 0.650178 27.2347 0.226424 25.3253C0.0394734 24.4878 0.0344881 23.6004 0.0270101 22.733C0.00457602 19.5075 0.019532 16.2795 0.019532 12.7747H0.0170394Z" fill="url(#paint1_linear_83_7)"/>
<path d="M29.4313 13.3659C29.4313 16.9927 29.516 20.9287 29.3964 24.8595C29.3365 26.7814 27.6191 28.3891 25.6175 28.8329C23.5859 29.2841 21.6268 28.4665 20.5749 26.7266C19.5429 25.0216 19.5553 22.8255 20.9711 21.3997C23.738 18.6079 26.6645 15.9757 29.4313 13.3659Z" fill="url(#paint2_linear_83_7)"/>
</g>
<path d="M56.4699 5.99897V21.8182H54.2225V10.1758H54.1457L49.3769 21.6976H47.5572L42.7775 10.1758H42.7007V21.8182H40.4644V5.99897H43.3036L48.4232 18.4855H48.5109L53.6195 5.99897H56.4699ZM64.7603 21.8182H62.3046V5.99897H64.7603V21.8182ZM77.2714 22.0812C72.8315 22.0812 70.025 18.946 70.025 13.9031C70.025 8.89312 72.8534 5.73587 77.2714 5.73587C80.8562 5.73587 83.564 7.93937 83.9806 11.2391H81.5468C81.1084 9.21104 79.42 7.88455 77.2714 7.88455C74.3991 7.88455 72.5354 10.2415 72.5354 13.9031C72.5354 17.5976 74.3772 19.9326 77.2823 19.9326C79.4858 19.9326 81.0535 18.8035 81.5468 16.8959H83.9915C83.3885 20.1629 80.911 22.0812 77.2714 22.0812ZM102.159 21.8182H99.7037V14.8131H91.5803V21.8182H89.1246V5.99897H91.5803V12.6862H99.7037V5.99897H102.159V21.8182ZM110.439 21.8182H107.983V5.99897H110.439V21.8182Z" fill="white"/>
<defs>
<linearGradient id="paint0_linear_83_7" x1="14.7004" y1="6.04383e-07" x2="14.7004" y2="19.7643" gradientUnits="userSpaceOnUse">
<stop stop-color="#E265FF"/>
<stop offset="1" stop-color="#2D35F9"/>
</linearGradient>
<linearGradient id="paint1_linear_83_7" x1="4.8792" y1="12.7747" x2="4.8792" y2="28.9789" gradientUnits="userSpaceOnUse">
<stop stop-color="#E265FF"/>
<stop offset="1" stop-color="#2D35F9"/>
</linearGradient>
<linearGradient id="paint2_linear_83_7" x1="24.6545" y1="13.3659" x2="24.6545" y2="28.9552" gradientUnits="userSpaceOnUse">
<stop stop-color="#E265FF"/>
<stop offset="1" stop-color="#2D35F9"/>
</linearGradient>
</defs>
</svg>
